<svg width="1600" height="900" viewBox="0 0 1600 900" fill="none" xmlns="http://www.w3.org/2000/svg">
  <defs>
    <linearGradient id="bg" x1="120" y1="20" x2="1500" y2="860" gradientUnits="userSpaceOnUse">
      <stop stop-color="#F6FCFF"/>
      <stop offset="1" stop-color="#E3F4FF"/>
    </linearGradient>
    <linearGradient id="panel" x1="0" y1="0" x2="1" y2="1">
      <stop stop-color="#F5FBFF"/>
      <stop offset="1" stop-color="#EAF7FF"/>
    </linearGradient>
    <linearGradient id="neon" x1="0" y1="0" x2="1" y2="1">
      <stop stop-color="#00A8BE"/>
      <stop offset="1" stop-color="#21BDA4"/>
    </linearGradient>
  </defs>
  <rect width="1600" height="900" fill="url(#bg)"/>
  <g opacity="0.75">
    <circle cx="290" cy="190" r="200" fill="#D7ECF9"/>
    <circle cx="1360" cy="760" r="220" fill="#D7F2F5"/>
  </g>
  <rect x="140" y="120" width="1320" height="660" rx="30" fill="#FFFFFF" stroke="#B8DCEC"/>
  <rect x="192" y="172" width="484" height="556" rx="22" fill="#F6FBFF" stroke="#C0DFEC"/>
  <rect x="238" y="228" width="392" height="20" rx="10" fill="#86C1D5"/>
  <rect x="238" y="264" width="284" height="12" rx="6" fill="#A7D3E2"/>
  <rect x="238" y="300" width="392" height="164" rx="16" fill="#EBF7FD" stroke="#BFDDE9"/>
  <path d="M268 424L326 378L384 392L448 340L500 366L562 322" stroke="url(#neon)" stroke-width="8" stroke-linecap="round"/>
  <rect x="238" y="492" width="184" height="86" rx="12" fill="#D6EDF7"/>
  <rect x="446" y="492" width="184" height="86" rx="12" fill="#D6EDF7"/>
  <rect x="238" y="606" width="392" height="78" rx="14" fill="#EBF7FD" stroke="#BFDDE9"/>
  <rect x="724" y="172" width="684" height="256" rx="22" fill="url(#panel)"/>
  <rect x="770" y="226" width="304" height="18" rx="9" fill="#8EC8D8"/>
  <rect x="770" y="260" width="220" height="12" rx="6" fill="#ABD8E4"/>
  <rect x="1100" y="226" width="262" height="156" rx="16" fill="#EAF6FC"/>
  <path d="M1136 350L1184 302L1230 320L1282 272L1328 294" stroke="#00A8BE" stroke-width="7" stroke-linecap="round"/>
  <rect x="724" y="470" width="316" height="258" rx="22" fill="#F8FCFF" stroke="#BEDCE9"/>
  <rect x="768" y="524" width="228" height="18" rx="9" fill="#9CCADA"/>
  <rect x="768" y="556" width="170" height="12" rx="6" fill="#AED6E3"/>
  <rect x="768" y="582" width="206" height="12" rx="6" fill="#AED6E3"/>
  <rect x="1088" y="470" width="320" height="258" rx="22" fill="#F8FCFF" stroke="#BEDCE9"/>
  <circle cx="1248" cy="560" r="76" fill="#E2F3FA"/>
  <path d="M1216 560H1280" stroke="#00A8BE" stroke-width="8" stroke-linecap="round"/>
  <path d="M1248 528V592" stroke="#1A99BF" stroke-width="8" stroke-linecap="round"/>
  <rect x="1130" y="656" width="236" height="14" rx="7" fill="#A0CDDD"/>
</svg>
