<svg width="1200" height="720" viewBox="0 0 1200 720" fill="none" xmlns="http://www.w3.org/2000/svg">
  <defs>
    <linearGradient id="bg" x1="130" y1="40" x2="1060" y2="690" gradientUnits="userSpaceOnUse">
      <stop stop-color="#F4FBFF"/>
      <stop offset="1" stop-color="#E1F4FF"/>
    </linearGradient>
    <linearGradient id="tone" x1="0" y1="0" x2="1" y2="1">
      <stop stop-color="#E9F7FD"/>
      <stop offset="1" stop-color="#DDF2FB"/>
    </linearGradient>
    <linearGradient id="line" x1="0" y1="0" x2="1" y2="1">
      <stop stop-color="#00A8BE"/>
      <stop offset="1" stop-color="#30C9A6"/>
    </linearGradient>
  </defs>
  <rect width="1200" height="720" fill="url(#bg)"/>
  <g opacity="0.7">
    <circle cx="174" cy="122" r="150" fill="#D5EEF8"/>
    <circle cx="1070" cy="670" r="180" fill="#D8F2F6"/>
  </g>
  <rect x="70" y="70" width="1060" height="580" rx="28" fill="#FFFFFF" stroke="#B8DCEC"/>
  <rect x="108" y="114" width="280" height="156" rx="16" fill="url(#tone)"/>
  <rect x="408" y="114" width="280" height="156" rx="16" fill="url(#tone)"/>
  <rect x="708" y="114" width="384" height="156" rx="16" fill="url(#tone)"/>
  <circle cx="208" cy="192" r="40" fill="#D6EEF8"/>
  <path d="M208 164V192L227 211" stroke="url(#line)" stroke-width="8" stroke-linecap="round"/>
  <rect x="458" y="170" width="180" height="12" rx="6" fill="#8CC9D9"/>
  <rect x="458" y="198" width="120" height="10" rx="5" fill="#A9D7E5"/>
  <rect x="744" y="164" width="312" height="14" rx="7" fill="#7AC5D1"/>
  <rect x="744" y="192" width="220" height="10" rx="5" fill="#9FD5DE"/>
  <rect x="744" y="216" width="172" height="10" rx="5" fill="#B4DDE5"/>
  <rect x="108" y="292" width="622" height="318" rx="18" fill="#F8FCFF" stroke="#B9DDEB"/>
  <path d="M152 556L230 500L310 520L394 462L468 490L556 410L636 438L686 388" stroke="url(#line)" stroke-width="9" stroke-linecap="round"/>
  <circle cx="230" cy="500" r="8" fill="#30C9A6"/>
  <circle cx="394" cy="462" r="8" fill="#30C9A6"/>
  <circle cx="556" cy="410" r="8" fill="#30C9A6"/>
  <circle cx="686" cy="388" r="8" fill="#30C9A6"/>
  <rect x="762" y="292" width="330" height="318" rx="18" fill="#F8FCFF" stroke="#B9DDEB"/>
  <rect x="804" y="330" width="246" height="126" rx="14" fill="#EBF7FD"/>
  <path d="M846 422V372" stroke="#30C9A6" stroke-width="16" stroke-linecap="round"/>
  <path d="M924 422V352" stroke="#00A8BE" stroke-width="16" stroke-linecap="round"/>
  <path d="M1002 422V390" stroke="#69BCCD" stroke-width="16" stroke-linecap="round"/>
  <rect x="804" y="484" width="246" height="18" rx="9" fill="#B5DCE8"/>
  <rect x="804" y="518" width="190" height="12" rx="6" fill="#9CCADA"/>
</svg>
