<svg width="1200" height="720" viewBox="0 0 1200 720" fill="none" xmlns="http://www.w3.org/2000/svg">
  <defs>
    <linearGradient id="bg" x1="60" y1="20" x2="1100" y2="700" gradientUnits="userSpaceOnUse">
      <stop stop-color="#F7FCFF"/>
      <stop offset="1" stop-color="#E3F5FF"/>
    </linearGradient>
    <linearGradient id="panel" x1="0" y1="0" x2="1" y2="1">
      <stop stop-color="#FFFFFF"/>
      <stop offset="1" stop-color="#F4FAFF"/>
    </linearGradient>
    <linearGradient id="accent" x1="0" y1="0" x2="1" y2="1">
      <stop stop-color="#00A9C0"/>
      <stop offset="1" stop-color="#20CBA2"/>
    </linearGradient>
  </defs>
  <rect width="1200" height="720" fill="url(#bg)"/>
  <g opacity="0.7">
    <circle cx="1020" cy="110" r="220" fill="#D9EEF9"/>
    <circle cx="160" cy="640" r="180" fill="#D6F3F3"/>
  </g>
  <rect x="84" y="80" width="1032" height="560" rx="22" fill="url(#panel)" stroke="#B6DCEC"/>
  <rect x="120" y="120" width="320" height="500" rx="16" fill="#F5FBFF" stroke="#C8E4F1"/>
  <rect x="148" y="162" width="264" height="22" rx="11" fill="#80BCD3"/>
  <rect x="148" y="206" width="210" height="14" rx="7" fill="#A2D3E2"/>
  <rect x="148" y="242" width="245" height="14" rx="7" fill="#BEDFEA"/>
  <rect x="148" y="288" width="264" height="128" rx="12" fill="#EAF7FD" stroke="#C0DEEA"/>
  <rect x="148" y="432" width="122" height="70" rx="10" fill="#D3EBF6"/>
  <rect x="290" y="432" width="122" height="70" rx="10" fill="#D3EBF6"/>
  <rect x="148" y="520" width="264" height="72" rx="12" fill="#EAF7FD" stroke="#C0DEEA"/>
  <rect x="470" y="120" width="610" height="320" rx="18" fill="#F8FCFF" stroke="#BEDFEC"/>
  <rect x="500" y="160" width="180" height="14" rx="7" fill="#A3CFDD"/>
  <rect x="705" y="160" width="120" height="14" rx="7" fill="#A3CFDD"/>
  <rect x="846" y="160" width="120" height="14" rx="7" fill="#A3CFDD"/>
  <path d="M510 352C574 322 612 337 666 300C724 261 760 278 814 246C862 218 914 235 974 198" stroke="url(#accent)" stroke-width="8" stroke-linecap="round"/>
  <circle cx="510" cy="352" r="8" fill="#20CBA2"/>
  <circle cx="666" cy="300" r="8" fill="#20CBA2"/>
  <circle cx="814" cy="246" r="8" fill="#20CBA2"/>
  <circle cx="974" cy="198" r="8" fill="#20CBA2"/>
  <rect x="470" y="468" width="284" height="152" rx="16" fill="#F8FCFF" stroke="#BEDFEC"/>
  <rect x="500" y="500" width="224" height="16" rx="8" fill="#B4D8E7"/>
  <rect x="500" y="534" width="170" height="12" rx="6" fill="#9EC8D9"/>
  <rect x="500" y="560" width="200" height="12" rx="6" fill="#9EC8D9"/>
  <rect x="780" y="468" width="300" height="152" rx="16" fill="#F8FCFF" stroke="#BEDFEC"/>
  <rect x="812" y="502" width="236" height="86" rx="12" fill="#EAF7FD"/>
  <path d="M840 566L882 542L920 554L968 520L1020 538" stroke="#00A9C0" stroke-width="6" stroke-linecap="round"/>
</svg>
